<svg xmlns="http://www.w3.org/2000/svg" viewBox="0 0 200.35 129.03"><defs><style>.cls-1{isolation:isolate;}.cls-2{opacity:0.75;}.cls-2,.cls-6{mix-blend-mode:multiply;}.cls-3{fill:#231f20;}.cls-4{fill:#b72926;}.cls-5{fill:#fff;}.cls-6{opacity:0.5;}.cls-7{fill:#f8d045;}</style></defs><title>Untitled-1</title><g class="cls-1"><g id="Retro_Logo_Kit" data-name="Retro Logo Kit"><g class="cls-2"><path class="cls-3" d="M176.9,33.31,103.8,6.26a7.53,7.53,0,0,0-5.25,0L25.45,33.31c-3.34,1.23-5.66,5.42-5.66,10.19v44c0,4.78,2.32,9,5.66,10.2l73.1,27a7.42,7.42,0,0,0,5.25,0l73.1-27c3.34-1.24,5.66-5.42,5.66-10.2v-44C182.56,38.73,180.24,34.54,176.9,33.31Z"/><path class="cls-3" d="M101.17,127.74a10,10,0,0,1-3.48-.63l-73.11-27c-4.36-1.61-7.29-6.65-7.29-12.54v-44c0-5.88,2.93-10.92,7.29-12.54l73.11-27a10,10,0,0,1,7,0l73.11,27c4.36,1.62,7.29,6.66,7.29,12.54v44c0,5.89-2.93,10.93-7.29,12.54l-73.11,27.05A10,10,0,0,1,101.17,127.74Zm0-119.45a4.91,4.91,0,0,0-1.75.32l-73.1,27c-2.34.87-4,4.17-4,7.85v44c0,3.69,1.69,7,4,7.85l73.1,27.05a4.94,4.94,0,0,0,3.51,0l73.1-27c2.34-.86,4-4.16,4-7.85v-44c0-3.68-1.69-7-4-7.85l-73.1-27A4.93,4.93,0,0,0,101.17,8.29Z"/></g><path class="cls-4" d="M175.9,32.31,102.8,5.26a7.53,7.53,0,0,0-5.25,0L24.45,32.31c-3.34,1.23-5.66,5.42-5.66,10.19v44c0,4.78,2.32,9,5.66,10.2l73.1,27a7.42,7.42,0,0,0,5.25,0l73.1-27c3.34-1.24,5.66-5.42,5.66-10.2v-44C181.56,37.73,179.24,33.54,175.9,32.31Z"/><path class="cls-5" d="M100.17,126.74a10,10,0,0,1-3.48-.63l-73.11-27c-4.36-1.61-7.29-6.65-7.29-12.54v-44c0-5.88,2.93-10.92,7.29-12.54l73.11-27a10,10,0,0,1,7,0l73.11,27c4.36,1.62,7.29,6.66,7.29,12.54v44c0,5.89-2.93,10.93-7.29,12.54l-73.11,27.05A10,10,0,0,1,100.17,126.74Zm0-119.45a4.91,4.91,0,0,0-1.75.32l-73.1,27c-2.34.87-4,4.17-4,7.85v44c0,3.69,1.69,7,4,7.85l73.1,27.05a4.94,4.94,0,0,0,3.51,0l73.1-27c2.34-.86,4-4.16,4-7.85v-44c0-3.68-1.69-7-4-7.85l-73.1-27A4.93,4.93,0,0,0,100.17,7.29Z"/><g class="cls-6"><path class="cls-3" d="M96.9,27.18a.16.16,0,0,0-.15-.18H95.69c-.09,0-.13,0-.13.14v2.72l1.14-.69a.43.43,0,0,1,.19-.09c.06,0,.08.05.08.11v.72c0,.11-.06.16-.19.24l-1.22.74v1.32a.12.12,0,0,0,.13.14h1a.18.18,0,0,0,.17-.19v-.59c0-.15,0-.22.09-.26a4.71,4.71,0,0,1,.69-.39c.08,0,.12,0,.12.13v1.77c0,.16-.08.25-.27.25H94.37c-.06,0-.1,0-.1-.09s.39-.37.39-.63V27c0-.26-.39-.52-.39-.63s0-.09.1-.09h3.15c.2,0,.28.09.28.21v1c0,.15,0,.22-.09.26a4.61,4.61,0,0,1-.69.43.11.11,0,0,1-.12-.12Z"/><path class="cls-3" d="M100.14,28.31a.5.5,0,0,0,.23.44l1.51,1.08a.73.73,0,0,1,.39.69v2c0,.37-.27.57-.7.57H100a.68.68,0,0,1-.74-.62V30.73a.11.11,0,0,1,.12-.12,4.61,4.61,0,0,1,.69.43c.06,0,.09.11.09.26v.86a.18.18,0,0,0,.17.19h.87c.14,0,.19-.06.19-.19V30.88a.48.48,0,0,0-.22-.42l-1.49-1.07a.76.76,0,0,1-.42-.67V26.85c0-.37.28-.57.7-.57h1.6a.68.68,0,0,1,.73.62v1.45c0,.08,0,.12-.11.12a4.76,4.76,0,0,1-.7-.43c-.06,0-.09-.11-.09-.26v-.59a.17.17,0,0,0-.17-.19h-.87c-.14,0-.19.06-.19.19Z"/><path class="cls-3" d="M106.27,26.37c.26,0,.65-.09.76-.09s.09,0,.09.1v1.13c0,.06,0,.1-.09.1s-.11-.08-.34-.34-.37-.19-.74-.19a.15.15,0,0,0-.15.15v5.12c0,.26.39.52.39.63s0,.09-.1.09h-1.48c-.06,0-.1,0-.1-.09s.39-.37.39-.63V27.23a.15.15,0,0,0-.15-.15c-.37,0-.6,0-.74.19s-.28.34-.34.34-.09,0-.09-.1V26.38c0-.07,0-.1.09-.1s.5.09.76.09Z"/></g><path class="cls-7" d="M96.4,26.68a.16.16,0,0,0-.15-.18H95.19c-.09,0-.13,0-.13.14v2.72l1.14-.69a.43.43,0,0,1,.19-.09c.06,0,.08.05.08.11v.72c0,.11-.06.16-.19.24l-1.22.74v1.32a.12.12,0,0,0,.13.14h1a.18.18,0,0,0,.17-.19v-.59c0-.15,0-.22.09-.26a4.71,4.71,0,0,1,.69-.39c.08,0,.12,0,.12.13v1.77c0,.16-.08.25-.27.25H93.87c-.06,0-.1,0-.1-.09s.39-.37.39-.63V26.5c0-.26-.39-.52-.39-.63s0-.09.1-.09H97c.2,0,.28.09.28.21v1c0,.15,0,.22-.09.26a4.61,4.61,0,0,1-.69.43.11.11,0,0,1-.12-.12Z"/><path class="cls-7" d="M99.64,27.81a.5.5,0,0,0,.23.44l1.51,1.08a.73.73,0,0,1,.39.69v2c0,.37-.27.57-.7.57H99.48a.68.68,0,0,1-.74-.62V30.23a.11.11,0,0,1,.12-.12,4.61,4.61,0,0,1,.69.43c.06,0,.09.11.09.26v.86a.18.18,0,0,0,.17.19h.87c.14,0,.19-.06.19-.19V30.38a.48.48,0,0,0-.22-.42l-1.49-1.07a.76.76,0,0,1-.42-.67V26.35c0-.37.28-.57.7-.57H101a.68.68,0,0,1,.73.62v1.45c0,.08,0,.12-.11.12a4.76,4.76,0,0,1-.7-.43c-.06,0-.09-.11-.09-.26v-.59a.17.17,0,0,0-.17-.19h-.87c-.14,0-.19.06-.19.19Z"/><path class="cls-7" d="M105.77,25.87c.26,0,.65-.09.76-.09s.09,0,.09.1V27c0,.06,0,.1-.09.1s-.11-.08-.34-.34-.37-.19-.74-.19a.15.15,0,0,0-.15.15v5.12c0,.26.39.52.39.63s0,.09-.1.09h-1.48c-.06,0-.1,0-.1-.09s.39-.37.39-.63V26.73a.15.15,0,0,0-.15-.15c-.37,0-.6,0-.74.19s-.28.34-.34.34-.09,0-.09-.1V25.88c0-.07,0-.1.09-.1s.5.09.76.09Z"/><g class="cls-6"><path class="cls-3" d="M91.62,46.2c0,.56.6.89.6,1.18,0,.13-.11.24-.31.24H89.44c-.19,0-.3-.11-.3-.24,0-.29.6-.62.6-1.18V39.49h-.58c-.21,0-.29-.09-.29-.21a12.78,12.78,0,0,1,1-2c.12-.19.21-.24.37-.24h.87c.34,0,.47.11.47.41Z"/><path class="cls-3" d="M94.54,46.47v-2c0-.27.11-.37.29-.37a4.78,4.78,0,0,1,1.35.72.49.49,0,0,1,.24.49v.6a.09.09,0,0,0,.08.08h1.39a.1.1,0,0,0,.1-.08V43.56a.1.1,0,0,0-.1-.09h-2c-.76,0-1.33-.39-1.33-1.15v-4.2c0-.73.6-1.09,1.33-1.09h2.62a1.28,1.28,0,0,1,1.38,1.16v8.35c0,.73-.61,1.08-1.33,1.08h-2.6A1.29,1.29,0,0,1,94.54,46.47Zm1.95-4.73h1.4a.11.11,0,0,0,.1-.09v-3a.11.11,0,0,0-.1-.1h-1.4a.1.1,0,0,0-.09.1v3A.1.1,0,0,0,96.49,41.74Z"/><path class="cls-3" d="M103.22,41.86l-.57-.45a.8.8,0,0,1-.37-.71V38.39c0-.94.59-1.35,1.53-1.35h2.55c.94,0,1.52.41,1.52,1.35V40.7a.81.81,0,0,1-.39.7l-.66.46.59.44a1.18,1.18,0,0,1,.51,1v3.29c0,.71-.61,1.08-1.33,1.08h-3.18c-.75,0-1.33-.37-1.33-1.08V43.25a1.09,1.09,0,0,1,.44-.9Zm2.72,4.22a.13.13,0,0,0,.11-.12V43.74s0-.06,0-.07a2.78,2.78,0,0,0-1-.76,3,3,0,0,0-1,.77.15.15,0,0,0,0,.07V46a.11.11,0,0,0,.11.12Zm.07-5.76V38.7a.13.13,0,0,0-.11-.12h-1.63a.11.11,0,0,0-.11.12v1.63a.23.23,0,0,0,.07.16,7.28,7.28,0,0,0,.87.64,8.23,8.23,0,0,0,.87-.67S106,40.35,106,40.32Z"/><path class="cls-3" d="M112.81,46.2c0,.56.6.89.6,1.18,0,.13-.11.24-.3.24h-2.47c-.2,0-.31-.11-.31-.24,0-.29.6-.62.6-1.18V39.49h-.57c-.21,0-.29-.09-.29-.21a13.59,13.59,0,0,1,1-2c.13-.19.21-.24.38-.24h.87c.34,0,.46.11.46.41Z"/></g><path class="cls-5" d="M90.62,45.2c0,.56.6.89.6,1.18,0,.13-.11.24-.31.24H88.44c-.19,0-.3-.11-.3-.24,0-.29.6-.62.6-1.18V38.49h-.58c-.21,0-.29-.09-.29-.21a12.78,12.78,0,0,1,1-2c.12-.19.21-.24.37-.24h.87c.34,0,.47.11.47.41Z"/><path class="cls-5" d="M93.54,45.47v-2c0-.27.11-.37.29-.37a4.78,4.78,0,0,1,1.35.72.49.49,0,0,1,.24.49v.6a.09.09,0,0,0,.08.08h1.39a.1.1,0,0,0,.1-.08V42.56a.1.1,0,0,0-.1-.09h-2c-.76,0-1.33-.39-1.33-1.15v-4.2c0-.73.6-1.09,1.33-1.09h2.62a1.28,1.28,0,0,1,1.38,1.16v8.35c0,.73-.61,1.08-1.33,1.08h-2.6A1.29,1.29,0,0,1,93.54,45.47Zm1.95-4.73h1.4a.11.11,0,0,0,.1-.09v-3a.11.11,0,0,0-.1-.1h-1.4a.1.1,0,0,0-.09.1v3A.1.1,0,0,0,95.49,40.74Z"/><path class="cls-5" d="M102.22,40.86l-.57-.45a.8.8,0,0,1-.37-.71V37.39c0-.94.59-1.35,1.53-1.35h2.55c.94,0,1.52.41,1.52,1.35V39.7a.81.81,0,0,1-.39.7l-.66.46.59.44a1.18,1.18,0,0,1,.51,1v3.29c0,.71-.61,1.08-1.33,1.08h-3.18c-.75,0-1.33-.37-1.33-1.08V42.25a1.09,1.09,0,0,1,.44-.9Zm2.72,4.22a.13.13,0,0,0,.11-.12V42.74s0-.06,0-.07a2.78,2.78,0,0,0-1-.76,3,3,0,0,0-1,.77.15.15,0,0,0,0,.07V45a.11.11,0,0,0,.11.12Zm.07-5.76V37.7a.13.13,0,0,0-.11-.12h-1.63a.11.11,0,0,0-.11.12v1.63a.23.23,0,0,0,.07.16,7.28,7.28,0,0,0,.87.64,8.23,8.23,0,0,0,.87-.67S105,39.35,105,39.32Z"/><path class="cls-5" d="M111.81,45.2c0,.56.6.89.6,1.18,0,.13-.11.24-.3.24h-2.47c-.2,0-.31-.11-.31-.24,0-.29.6-.62.6-1.18V38.49h-.57c-.21,0-.29-.09-.29-.21a13.59,13.59,0,0,1,1-2c.13-.19.21-.24.38-.24h.87c.34,0,.46.11.46.41Z"/><g class="cls-6"><path class="cls-3" d="M72.13,99.54c-2.24,0-2.79-.74-2.79-1.84V93.24c0-.22.1-.32.33-.32h1.41c.23,0,.32.1.32.32v4.11c0,.24.11.42.74.42s.75-.18.75-.42V93.24c0-.22.09-.32.32-.32h1.37c.23,0,.33.1.33.32V97.7C74.91,98.8,74.36,99.54,72.13,99.54Z"/><path class="cls-3" d="M76.65,99.4a.28.28,0,0,1-.32-.32V93.24a.28.28,0,0,1,.32-.32h2.76c1.63,0,2.12.71,2.12,1.75v1.16c0,1-.49,1.75-2.12,1.75h-1v1.5a.28.28,0,0,1-.32.32ZM78.35,96h.81c.35,0,.43-.21.43-.44V95c0-.23-.08-.44-.43-.44h-.81Z"/><path class="cls-3" d="M83,99.4a.28.28,0,0,1-.32-.32V93.24a.28.28,0,0,1,.32-.32h1.4a.28.28,0,0,1,.32.32v2h1.51v-2a.28.28,0,0,1,.32-.32H88a.28.28,0,0,1,.32.32v5.84a.28.28,0,0,1-.32.32h-1.4a.28.28,0,0,1-.32-.32v-2H84.73v2a.28.28,0,0,1-.32.32Z"/><path class="cls-3" d="M92.45,99.54c-2.25,0-2.8-.74-2.8-1.84V94.63c0-1.1.55-1.85,2.8-1.85s2.79.75,2.79,1.85V97.7C95.24,98.8,94.7,99.54,92.45,99.54Zm0-1.74c.65,0,.75-.18.75-.42V95c0-.23-.1-.41-.75-.41s-.76.18-.76.41v2.43C91.69,97.62,91.8,97.8,92.45,97.8Z"/><path class="cls-3" d="M96.93,99.4c-.23,0-.33-.1-.33-.32V93.24c0-.22.1-.32.33-.32h1.39c.23,0,.33.1.33.32V97.7h1.23V96.24c0-.22.1-.32.33-.32h1.3c.23,0,.32.1.32.32v2.84c0,.22-.09.32-.32.32Z"/><path class="cls-3" d="M103.25,99.4c-.23,0-.33-.1-.33-.32V98c0-.22.1-.32.33-.32h2.42a.23.23,0,0,0,.23-.26c0-.21-.08-.29-.23-.31l-1.35-.19c-.85-.12-1.4-.48-1.4-1.49v-1c0-1,.69-1.58,1.86-1.58h2.53a.28.28,0,0,1,.32.32v1.07c0,.23-.1.33-.32.33h-2.1a.24.24,0,0,0-.25.27.27.27,0,0,0,.25.29l1.34.18c.85.12,1.4.48,1.4,1.49v.95c0,1-.7,1.58-1.86,1.58Z"/><path class="cls-3" d="M110.67,99.4a.28.28,0,0,1-.32-.32V94.66H109c-.22,0-.32-.1-.32-.33V93.24a.28.28,0,0,1,.32-.32h4.76a.28.28,0,0,1,.32.32v1.09c0,.23-.1.33-.32.33h-1.33v4.42a.28.28,0,0,1-.32.32Z"/><path class="cls-3" d="M115.52,99.4a.28.28,0,0,1-.32-.32V93.24a.28.28,0,0,1,.32-.32h4.18a.28.28,0,0,1,.32.32V94.3a.28.28,0,0,1-.32.32h-2.49v.69H119c.22,0,.32.1.32.33v1c0,.23-.1.32-.32.32h-1.76v.78h2.49A.28.28,0,0,1,120,98v1.06a.28.28,0,0,1-.32.32Z"/><path class="cls-3" d="M121.63,99.4a.28.28,0,0,1-.32-.32V93.24a.28.28,0,0,1,.32-.32h3c1.35,0,1.77.61,1.77,1.5v.42c0,.5-.12.86-.5,1A1.2,1.2,0,0,1,127,97.17v1.91c0,.22-.1.32-.33.32h-1.39c-.23,0-.33-.1-.33-.32V97.7c0-.27-.09-.39-.34-.39h-1.26v1.77a.28.28,0,0,1-.32.32Zm1.71-3.71H124c.31,0,.39-.18.39-.42V95c0-.24-.08-.42-.39-.42h-.68Z"/><path class="cls-3" d="M129.78,99.4c-.24,0-.33-.1-.33-.32V97.92l-1.37-1.84a1.45,1.45,0,0,1-.35-1.11V93.24c0-.22.1-.32.33-.32h1.38c.23,0,.33.1.33.32v1.48a.67.67,0,0,0,.08.38l.41.65c.07.1.12.15.22.15h.09c.1,0,.15-.05.22-.15l.41-.65a.67.67,0,0,0,.08-.38V93.24a.28.28,0,0,1,.32-.32H133a.28.28,0,0,1,.32.32V95a1.48,1.48,0,0,1-.34,1.11l-1.37,1.85v1.15a.28.28,0,0,1-.32.32Z"/></g><path class="cls-5" d="M71.13,98.54c-2.24,0-2.79-.74-2.79-1.84V92.24c0-.22.1-.32.33-.32h1.41c.23,0,.32.1.32.32v4.11c0,.24.11.42.74.42s.75-.18.75-.42V92.24c0-.22.09-.32.32-.32h1.37c.23,0,.33.1.33.32V96.7C73.91,97.8,73.36,98.54,71.13,98.54Z"/><path class="cls-5" d="M75.65,98.4a.28.28,0,0,1-.32-.32V92.24a.28.28,0,0,1,.32-.32h2.76c1.63,0,2.12.71,2.12,1.75v1.16c0,1-.49,1.75-2.12,1.75h-1v1.5a.28.28,0,0,1-.32.32ZM77.35,95h.81c.35,0,.43-.21.43-.44V94c0-.23-.08-.44-.43-.44h-.81Z"/><path class="cls-5" d="M82,98.4a.28.28,0,0,1-.32-.32V92.24a.28.28,0,0,1,.32-.32h1.4a.28.28,0,0,1,.32.32v2h1.51v-2a.28.28,0,0,1,.32-.32H87a.28.28,0,0,1,.32.32v5.84a.28.28,0,0,1-.32.32h-1.4a.28.28,0,0,1-.32-.32v-2H83.73v2a.28.28,0,0,1-.32.32Z"/><path class="cls-5" d="M91.45,98.54c-2.25,0-2.8-.74-2.8-1.84V93.63c0-1.1.55-1.85,2.8-1.85s2.79.75,2.79,1.85V96.7C94.24,97.8,93.7,98.54,91.45,98.54Zm0-1.74c.65,0,.75-.18.75-.42V94c0-.23-.1-.41-.75-.41s-.76.18-.76.41v2.43C90.69,96.62,90.8,96.8,91.45,96.8Z"/><path class="cls-5" d="M95.93,98.4c-.23,0-.33-.1-.33-.32V92.24c0-.22.1-.32.33-.32h1.39c.23,0,.33.1.33.32V96.7h1.23V95.24c0-.22.1-.32.33-.32h1.3c.23,0,.32.1.32.32v2.84c0,.22-.09.32-.32.32Z"/><path class="cls-5" d="M102.25,98.4c-.23,0-.33-.1-.33-.32V97c0-.22.1-.32.33-.32h2.42a.23.23,0,0,0,.23-.26c0-.21-.08-.29-.23-.31l-1.35-.19c-.85-.12-1.4-.48-1.4-1.49v-1c0-1,.69-1.58,1.86-1.58h2.53a.28.28,0,0,1,.32.32v1.07c0,.23-.1.33-.32.33h-2.1a.24.24,0,0,0-.25.27.27.27,0,0,0,.25.29l1.34.18c.85.12,1.4.48,1.4,1.49v.95c0,1-.7,1.58-1.86,1.58Z"/><path class="cls-5" d="M109.67,98.4a.28.28,0,0,1-.32-.32V93.66H108c-.22,0-.32-.1-.32-.33V92.24a.28.28,0,0,1,.32-.32h4.76a.28.28,0,0,1,.32.32v1.09c0,.23-.1.33-.32.33h-1.33v4.42a.28.28,0,0,1-.32.32Z"/><path class="cls-5" d="M114.52,98.4a.28.28,0,0,1-.32-.32V92.24a.28.28,0,0,1,.32-.32h4.18a.28.28,0,0,1,.32.32V93.3a.28.28,0,0,1-.32.32h-2.49v.69H118c.22,0,.32.1.32.33v1c0,.23-.1.32-.32.32h-1.76v.78h2.49A.28.28,0,0,1,119,97v1.06a.28.28,0,0,1-.32.32Z"/><path class="cls-5" d="M120.63,98.4a.28.28,0,0,1-.32-.32V92.24a.28.28,0,0,1,.32-.32h3c1.35,0,1.77.61,1.77,1.5v.42c0,.5-.12.86-.5,1A1.2,1.2,0,0,1,126,96.17v1.91c0,.22-.1.32-.33.32h-1.39c-.23,0-.33-.1-.33-.32V96.7c0-.27-.09-.39-.34-.39h-1.26v1.77a.28.28,0,0,1-.32.32Zm1.71-3.71H123c.31,0,.39-.18.39-.42V94c0-.24-.08-.42-.39-.42h-.68Z"/><path class="cls-5" d="M128.78,98.4c-.24,0-.33-.1-.33-.32V96.92l-1.37-1.84a1.45,1.45,0,0,1-.35-1.11V92.24c0-.22.1-.32.33-.32h1.38c.23,0,.33.1.33.32v1.48a.67.67,0,0,0,.08.38l.41.65c.07.1.12.15.22.15h.09c.1,0,.15-.05.22-.15l.41-.65a.67.67,0,0,0,.08-.38V92.24a.28.28,0,0,1,.32-.32H132a.28.28,0,0,1,.32.32V94a1.48,1.48,0,0,1-.34,1.11l-1.37,1.85v1.15a.28.28,0,0,1-.32.32Z"/><g class="cls-2"><path class="cls-3" d="M61.43,83.46C60.43,83.46,60,83,60,82V77.34c0-1,.44-1.44,1.44-1.44H72.19a1,1,0,0,0,1-1.16c0-.92-.36-1.28-1-1.36l-6-.84C62.43,72,60,70.38,60,65.9V61.7c0-4.56,3.08-7,8.28-7H79.46c1,0,1.44.44,1.44,1.44v4.76c0,1-.44,1.44-1.44,1.44H70.15a1.06,1.06,0,0,0-1.08,1.2,1.18,1.18,0,0,0,1.08,1.28l6,.8c3.75.56,6.23,2.16,6.23,6.64v4.2c0,4.56-3.12,7-8.27,7Zm7-25.2c-2.48,0-4.08,1.52-4.08,3.64v3.28c0,2.2,1,2.8,2.36,3.08L75.15,70c1.48.32,2.44,1,2.44,3.52v2.32c0,2.12-1.56,3.64-4,3.64h-10v.4h10c2.72,0,4.44-1.68,4.44-4V73.5c0-2.8-1.16-3.6-2.76-3.92l-8.44-1.72c-1.24-.24-2-.8-2-2.68V61.9c0-1.88,1.44-3.24,3.68-3.24H77.3v-.4Z"/><path class="cls-3" d="M92.15,83.46c-1,0-1.44-.44-1.44-1.44V56.1c0-1,.44-1.44,1.44-1.44h6.2c1,0,1.44.44,1.44,1.44v8.68h6.67V56.1c0-1,.45-1.44,1.45-1.44h6.19c1,0,1.44.44,1.44,1.44V82c0,1-.44,1.44-1.44,1.44h-6.19c-1,0-1.45-.44-1.45-1.44V73.14H99.79V82c0,1-.44,1.44-1.44,1.44Zm3.28-3.6V69.26h15.35v10.6h.4V58.26h-.4v10.6H95.43V58.26H95v21.6Z"/><path class="cls-3" d="M126.51,83.46c-1,0-1.44-.44-1.44-1.44V56.1c0-1,.44-1.44,1.44-1.44h6.2c1,0,1.44.44,1.44,1.44v8.68h6.67V56.1c0-1,.44-1.44,1.44-1.44h6.2c1,0,1.44.44,1.44,1.44V82c0,1-.44,1.44-1.44,1.44h-6.2c-1,0-1.44-.44-1.44-1.44V73.14h-6.67V82c0,1-.44,1.44-1.44,1.44Zm3.28-3.6V69.26h15.35v10.6h.4V58.26h-.4v10.6H129.79V58.26h-.4v21.6Z"/></g><path class="cls-7" d="M59.43,81.46C58.43,81.46,58,81,58,80V75.34c0-1,.44-1.44,1.44-1.44H70.19a1,1,0,0,0,1-1.16c0-.92-.36-1.28-1-1.36l-6-.84C60.43,70,58,68.38,58,63.9V59.7c0-4.56,3.08-7,8.28-7H77.46c1,0,1.44.44,1.44,1.44v4.76c0,1-.44,1.44-1.44,1.44H68.15a1.06,1.06,0,0,0-1.08,1.2,1.18,1.18,0,0,0,1.08,1.28l6,.8c3.75.56,6.23,2.16,6.23,6.64v4.2c0,4.56-3.12,7-8.27,7Zm7-25.2c-2.48,0-4.08,1.52-4.08,3.64v3.28c0,2.2,1,2.8,2.36,3.08L73.15,68c1.48.32,2.44,1,2.44,3.52v2.32c0,2.12-1.56,3.64-4,3.64h-10v.4h10c2.72,0,4.44-1.68,4.44-4V71.5c0-2.8-1.16-3.6-2.76-3.92l-8.44-1.72c-1.24-.24-2-.8-2-2.68V59.9c0-1.88,1.44-3.24,3.68-3.24H75.3v-.4Z"/><path class="cls-7" d="M90.15,81.46c-1,0-1.44-.44-1.44-1.44V54.1c0-1,.44-1.44,1.44-1.44h6.2c1,0,1.44.44,1.44,1.44v8.68h6.67V54.1c0-1,.45-1.44,1.45-1.44h6.19c1,0,1.44.44,1.44,1.44V80c0,1-.44,1.44-1.44,1.44h-6.19c-1,0-1.45-.44-1.45-1.44V71.14H97.79V80c0,1-.44,1.44-1.44,1.44Zm3.28-3.6V67.26h15.35v10.6h.4V56.26h-.4v10.6H93.43V56.26H93v21.6Z"/><path class="cls-7" d="M124.51,81.46c-1,0-1.44-.44-1.44-1.44V54.1c0-1,.44-1.44,1.44-1.44h6.2c1,0,1.44.44,1.44,1.44v8.68h6.67V54.1c0-1,.44-1.44,1.44-1.44h6.2c1,0,1.44.44,1.44,1.44V80c0,1-.44,1.44-1.44,1.44h-6.2c-1,0-1.44-.44-1.44-1.44V71.14h-6.67V80c0,1-.44,1.44-1.44,1.44Zm3.28-3.6V67.26h15.35v10.6h.4V56.26h-.4v10.6H127.79V56.26h-.4v21.6Z"/><g class="cls-6"><path class="cls-3" d="M54.64,94.53l-.14.14a.79.79,0,0,1-1.27-.91.2.2,0,0,0-.08-.27.2.2,0,0,0-.27.09A1.19,1.19,0,0,0,54.78,95l.14-.14a1.26,1.26,0,0,1,.51-.32l.38-.47A1.76,1.76,0,0,0,54.64,94.53Z"/><path class="cls-3" d="M57.33,98.25a.77.77,0,0,1-.92-.15.78.78,0,0,1,0-1.11l.14-.14A1.8,1.8,0,0,0,57,95.2l.37-.31a1,1,0,0,0-1.4-1.4c-.31.32-4.11,5.19-4.27,5.4a.2.2,0,0,0,.15.32.17.17,0,0,0,.12,0c.17-.12,3.24-2.52,4.68-3.67a1.41,1.41,0,0,1-.4,1.08l-.14.14a1.17,1.17,0,0,0,0,1.67,1.18,1.18,0,0,0,.84.35,1.12,1.12,0,0,0,.53-.13.19.19,0,0,0-.17-.35Zm-.78-3.92h0l-.28.28h0l.13.15-.13.13a.19.19,0,0,1-.28,0,.19.19,0,0,1,0-.28l.56-.56a.2.2,0,0,1,.28.28l-.15.15Z"/></g><path class="cls-5" d="M54.14,94l-.14.14a.79.79,0,0,1-1.27-.91.2.2,0,0,0-.08-.27.2.2,0,0,0-.27.09,1.19,1.19,0,0,0,1.9,1.37l.14-.14a1.26,1.26,0,0,1,.51-.32l.38-.47A1.76,1.76,0,0,0,54.14,94Z"/><path class="cls-5" d="M56.83,97.75a.77.77,0,0,1-.92-.15.78.78,0,0,1,0-1.11l.14-.14a1.8,1.8,0,0,0,.47-1.65l.37-.31a1,1,0,0,0-1.4-1.4c-.31.32-4.11,5.19-4.27,5.4a.2.2,0,0,0,.15.32.17.17,0,0,0,.12,0c.17-.12,3.24-2.52,4.68-3.67a1.41,1.41,0,0,1-.4,1.08l-.14.14a1.17,1.17,0,0,0,0,1.67,1.18,1.18,0,0,0,.84.35A1.12,1.12,0,0,0,57,98.1a.19.19,0,0,0-.17-.35Zm-.78-3.92h0l-.28.28h0l.13.15-.13.13a.19.19,0,0,1-.28,0,.19.19,0,0,1,0-.28l.56-.56a.2.2,0,0,1,.28.28l-.15.15Z"/><g class="cls-6"><path class="cls-3" d="M146.64,94.53l-.14.14a.79.79,0,0,1-1.27-.91.2.2,0,0,0-.08-.27.2.2,0,0,0-.27.09,1.19,1.19,0,0,0,1.9,1.37l.14-.14a1.26,1.26,0,0,1,.51-.32l.38-.47A1.76,1.76,0,0,0,146.64,94.53Z"/><path class="cls-3" d="M149.33,98.25a.77.77,0,0,1-.92-.15.78.78,0,0,1,0-1.11l.14-.14A1.8,1.8,0,0,0,149,95.2l.37-.31a1,1,0,0,0-1.4-1.4c-.31.32-4.11,5.19-4.27,5.4a.2.2,0,0,0,.15.32.17.17,0,0,0,.12,0c.17-.12,3.24-2.52,4.68-3.67a1.41,1.41,0,0,1-.4,1.08l-.14.14a1.17,1.17,0,0,0,0,1.67,1.18,1.18,0,0,0,.84.35,1.12,1.12,0,0,0,.53-.13.19.19,0,1,0-.17-.35Zm-.78-3.92h0l-.28.28h0l.13.15-.13.13a.19.19,0,0,1-.28,0,.19.19,0,0,1,0-.28l.56-.56a.2.2,0,0,1,.28.28l-.15.15Z"/></g><path class="cls-5" d="M146.14,94l-.14.14a.79.79,0,0,1-1.27-.91.2.2,0,0,0-.08-.27.2.2,0,0,0-.27.09,1.19,1.19,0,0,0,1.9,1.37l.14-.14a1.26,1.26,0,0,1,.51-.32l.38-.47A1.76,1.76,0,0,0,146.14,94Z"/><path class="cls-5" d="M148.83,97.75a.77.77,0,0,1-.92-.15.78.78,0,0,1,0-1.11l.14-.14a1.8,1.8,0,0,0,.47-1.65l.37-.31a1,1,0,0,0-1.4-1.4c-.31.32-4.11,5.19-4.27,5.4a.2.2,0,0,0,.15.32.17.17,0,0,0,.12,0c.17-.12,3.24-2.52,4.68-3.67a1.41,1.41,0,0,1-.4,1.08l-.14.14a1.17,1.17,0,0,0,0,1.67,1.18,1.18,0,0,0,.84.35,1.12,1.12,0,0,0,.53-.13.19.19,0,1,0-.17-.35Zm-.78-3.92h0l-.28.28h0l.13.15-.13.13a.19.19,0,0,1-.28,0,.19.19,0,0,1,0-.28l.56-.56a.2.2,0,0,1,.28.28l-.15.15Z"/><g class="cls-6"><path class="cls-3" d="M81.36,30.79V32c0,.43-.27.78-.59.76l-18.6-1.18c-.18,0-.18-.37,0-.38L80.77,30C81.09,30,81.36,30.36,81.36,30.79Z"/></g><path class="cls-7" d="M80.36,29.79V31c0,.43-.27.78-.59.76l-18.6-1.18c-.18,0-.18-.37,0-.38L79.77,29C80.09,29,80.36,29.36,80.36,29.79Z"/><g class="cls-6"><path class="cls-3" d="M81.36,37.15v1.22a.91.91,0,0,1-1,.76L47.44,38c-.32,0-.32-.38,0-.39L80.32,36.4C80.89,36.38,81.36,36.72,81.36,37.15Z"/></g><path class="cls-7" d="M80.36,36.15v1.22a.91.91,0,0,1-1,.76L46.44,37c-.32,0-.32-.38,0-.39L79.32,35.4C79.89,35.38,80.36,35.72,80.36,36.15Z"/><g class="cls-6"><path class="cls-3" d="M81.36,43.15v1.22c0,.43-.61.78-1.33.76L38,44c-.42,0-.42-.38,0-.39L80,42.4C80.75,42.38,81.36,42.72,81.36,43.15Z"/></g><path class="cls-7" d="M80.36,42.15v1.22c0,.43-.61.78-1.33.76L37,43c-.42,0-.42-.38,0-.39L79,41.4C79.75,41.38,80.36,41.72,80.36,42.15Z"/><g class="cls-6"><path class="cls-3" d="M121,30.79V32c0,.43.27.78.59.76l18.6-1.18c.18,0,.18-.37,0-.38L121.58,30C121.26,30,121,30.36,121,30.79Z"/></g><path class="cls-7" d="M120,29.79V31c0,.43.27.78.59.76l18.6-1.18c.18,0,.18-.37,0-.38L120.58,29C120.26,29,120,29.36,120,29.79Z"/><g class="cls-6"><path class="cls-3" d="M121,37.15v1.22a.91.91,0,0,0,1,.76L154.91,38c.32,0,.32-.38,0-.39L122,36.4C121.46,36.38,121,36.72,121,37.15Z"/></g><path class="cls-7" d="M120,36.15v1.22a.91.91,0,0,0,1,.76L153.91,37c.32,0,.32-.38,0-.39L121,35.4C120.46,35.38,120,35.72,120,36.15Z"/><g class="cls-6"><path class="cls-3" d="M121,43.15v1.22c0,.43.61.78,1.33.76l42-1.17c.42,0,.42-.38,0-.39l-42-1.17C121.6,42.38,121,42.72,121,43.15Z"/></g><path class="cls-7" d="M120,42.15v1.22c0,.43.61.78,1.33.76l42-1.17c.42,0,.42-.38,0-.39l-42-1.17C120.6,41.38,120,41.72,120,42.15Z"/></g></g></svg>