<svg xmlns="http://www.w3.org/2000/svg" viewBox="0 0 200.35 129.03"><defs><style>.cls-1{isolation:isolate;}.cls-2{opacity:0.75;}.cls-2,.cls-7{mix-blend-mode:multiply;}.cls-10,.cls-12,.cls-17,.cls-3,.cls-8{fill:#231f20;}.cls-4,.cls-6{fill:none;stroke-miterlimit:10;stroke-width:5px;}.cls-4{stroke:#231f20;}.cls-5{fill:#b72926;}.cls-6{stroke:#fff;}.cls-7{opacity:0.5;}.cls-12,.cls-16,.cls-8,.cls-9{font-size:9px;}.cls-8,.cls-9{font-family:BoucherieBlock, Boucherie Block;letter-spacing:0.1em;}.cls-18,.cls-20,.cls-9{fill:#f8d045;}.cls-10,.cls-11{font-size:14px;font-family:BoucherieBlock-Bold, Boucherie Block;font-weight:700;letter-spacing:0.1em;}.cls-11,.cls-16,.cls-19{fill:#fff;}.cls-12,.cls-16{font-family:Bungee-Regular, Bungee;letter-spacing:0.02em;}.cls-13{letter-spacing:0.01em;}.cls-14{letter-spacing:0.03em;}.cls-15{letter-spacing:0em;}.cls-17,.cls-18{font-size:40px;font-family:Bungee-Inline, Bungee;letter-spacing:0.1em;}</style></defs><title>Untitled-1</title><g class="cls-1"><g id="Retro_Logo_Kit" data-name="Retro Logo Kit"><g class="cls-2"><path class="cls-3" d="M176.9,33.31,103.8,6.26a7.53,7.53,0,0,0-5.25,0L25.45,33.31c-3.34,1.23-5.66,5.42-5.66,10.19v44c0,4.78,2.32,9,5.66,10.2l73.1,27a7.42,7.42,0,0,0,5.25,0l73.1-27c3.34-1.24,5.66-5.42,5.66-10.2v-44C182.56,38.73,180.24,34.54,176.9,33.31Z"/><path class="cls-4" d="M176.9,33.31,103.8,6.26a7.53,7.53,0,0,0-5.25,0L25.45,33.31c-3.34,1.23-5.66,5.42-5.66,10.19v44c0,4.78,2.32,9,5.66,10.2l73.1,27a7.42,7.42,0,0,0,5.25,0l73.1-27c3.34-1.24,5.66-5.42,5.66-10.2v-44C182.56,38.73,180.24,34.54,176.9,33.31Z"/></g><path class="cls-5" d="M175.9,32.31,102.8,5.26a7.53,7.53,0,0,0-5.25,0L24.45,32.31c-3.34,1.23-5.66,5.42-5.66,10.19v44c0,4.78,2.32,9,5.66,10.2l73.1,27a7.42,7.42,0,0,0,5.25,0l73.1-27c3.34-1.24,5.66-5.42,5.66-10.2v-44C181.56,37.73,179.24,33.54,175.9,32.31Z"/><path class="cls-6" d="M175.9,32.31,102.8,5.26a7.53,7.53,0,0,0-5.25,0L24.45,32.31c-3.34,1.23-5.66,5.42-5.66,10.19v44c0,4.78,2.32,9,5.66,10.2l73.1,27a7.42,7.42,0,0,0,5.25,0l73.1-27c3.34-1.24,5.66-5.42,5.66-10.2v-44C181.56,37.73,179.24,33.54,175.9,32.31Z"/><g class="cls-7"><text class="cls-8" transform="translate(94.09 33.07)">EST</text></g><text class="cls-9" transform="translate(93.59 32.57)">EST</text><g class="cls-7"><text class="cls-10" transform="translate(88.45 47.62)">1981</text></g><text class="cls-11" transform="translate(87.45 46.62)">1981</text><g class="cls-7"><text class="cls-12" transform="translate(68.77 99.4)">Uphol<tspan class="cls-13" x="33.7" y="0">s</tspan><tspan class="cls-14" x="39.68" y="0">te</tspan><tspan class="cls-15" x="51.92" y="0">r</tspan><tspan class="cls-13" x="58.56" y="0">y</tspan></text></g><text class="cls-16" transform="translate(67.77 98.4)">Uphol<tspan class="cls-13" x="33.7" y="0">s</tspan><tspan class="cls-14" x="39.68" y="0">te</tspan><tspan class="cls-15" x="51.92" y="0">r</tspan><tspan class="cls-13" x="58.56" y="0">y</tspan></text><g class="cls-2"><text class="cls-17" transform="translate(57.95 83.46)">SHH</text></g><text class="cls-18" transform="translate(55.95 81.46)">SHH</text><g class="cls-7"><path class="cls-3" d="M54.64,94.53l-.14.14a.79.79,0,0,1-1.27-.91.2.2,0,0,0-.08-.27.2.2,0,0,0-.27.09A1.19,1.19,0,0,0,54.78,95l.14-.14a1.26,1.26,0,0,1,.51-.32l.38-.47A1.76,1.76,0,0,0,54.64,94.53Z"/><path class="cls-3" d="M57.33,98.25a.77.77,0,0,1-.92-.15.78.78,0,0,1,0-1.11l.14-.14A1.8,1.8,0,0,0,57,95.2l.37-.31a1,1,0,0,0-1.4-1.4c-.31.32-4.11,5.19-4.27,5.4a.2.2,0,0,0,.15.32.17.17,0,0,0,.12,0c.17-.12,3.24-2.52,4.68-3.67a1.41,1.41,0,0,1-.4,1.08l-.14.14a1.17,1.17,0,0,0,0,1.67,1.18,1.18,0,0,0,.84.35,1.12,1.12,0,0,0,.53-.13.19.19,0,0,0-.17-.35Zm-.78-3.92h0l-.28.28h0l.13.15-.13.13a.19.19,0,0,1-.28,0,.19.19,0,0,1,0-.28l.56-.56a.2.2,0,0,1,.28.28l-.15.15Z"/></g><path class="cls-19" d="M54.14,94l-.14.14a.79.79,0,0,1-1.27-.91.2.2,0,0,0-.08-.27.2.2,0,0,0-.27.09,1.19,1.19,0,0,0,1.9,1.37l.14-.14a1.26,1.26,0,0,1,.51-.32l.38-.47A1.76,1.76,0,0,0,54.14,94Z"/><path class="cls-19" d="M56.83,97.75a.77.77,0,0,1-.92-.15.78.78,0,0,1,0-1.11l.14-.14a1.8,1.8,0,0,0,.47-1.65l.37-.31a1,1,0,0,0-1.4-1.4c-.31.32-4.11,5.19-4.27,5.4a.2.2,0,0,0,.15.32.17.17,0,0,0,.12,0c.17-.12,3.24-2.52,4.68-3.67a1.41,1.41,0,0,1-.4,1.08l-.14.14a1.17,1.17,0,0,0,0,1.67,1.18,1.18,0,0,0,.84.35A1.12,1.12,0,0,0,57,98.1a.19.19,0,0,0-.17-.35Zm-.78-3.92h0l-.28.28h0l.13.15-.13.13a.19.19,0,0,1-.28,0,.19.19,0,0,1,0-.28l.56-.56a.2.2,0,0,1,.28.28l-.15.15Z"/><g class="cls-7"><path class="cls-3" d="M146.64,94.53l-.14.14a.79.79,0,0,1-1.27-.91.2.2,0,0,0-.08-.27.2.2,0,0,0-.27.09,1.19,1.19,0,0,0,1.9,1.37l.14-.14a1.26,1.26,0,0,1,.51-.32l.38-.47A1.76,1.76,0,0,0,146.64,94.53Z"/><path class="cls-3" d="M149.33,98.25a.77.77,0,0,1-.92-.15.78.78,0,0,1,0-1.11l.14-.14A1.8,1.8,0,0,0,149,95.2l.37-.31a1,1,0,0,0-1.4-1.4c-.31.32-4.11,5.19-4.27,5.4a.2.2,0,0,0,.15.32.17.17,0,0,0,.12,0c.17-.12,3.24-2.52,4.68-3.67a1.41,1.41,0,0,1-.4,1.08l-.14.14a1.17,1.17,0,0,0,0,1.67,1.18,1.18,0,0,0,.84.35,1.12,1.12,0,0,0,.53-.13.19.19,0,1,0-.17-.35Zm-.78-3.92h0l-.28.28h0l.13.15-.13.13a.19.19,0,0,1-.28,0,.19.19,0,0,1,0-.28l.56-.56a.2.2,0,0,1,.28.28l-.15.15Z"/></g><path class="cls-19" d="M146.14,94l-.14.14a.79.79,0,0,1-1.27-.91.2.2,0,0,0-.08-.27.2.2,0,0,0-.27.09,1.19,1.19,0,0,0,1.9,1.37l.14-.14a1.26,1.26,0,0,1,.51-.32l.38-.47A1.76,1.76,0,0,0,146.14,94Z"/><path class="cls-19" d="M148.83,97.75a.77.77,0,0,1-.92-.15.78.78,0,0,1,0-1.11l.14-.14a1.8,1.8,0,0,0,.47-1.65l.37-.31a1,1,0,0,0-1.4-1.4c-.31.32-4.11,5.19-4.27,5.4a.2.2,0,0,0,.15.32.17.17,0,0,0,.12,0c.17-.12,3.24-2.52,4.68-3.67a1.41,1.41,0,0,1-.4,1.08l-.14.14a1.17,1.17,0,0,0,0,1.67,1.18,1.18,0,0,0,.84.35,1.12,1.12,0,0,0,.53-.13.19.19,0,1,0-.17-.35Zm-.78-3.92h0l-.28.28h0l.13.15-.13.13a.19.19,0,0,1-.28,0,.19.19,0,0,1,0-.28l.56-.56a.2.2,0,0,1,.28.28l-.15.15Z"/><g class="cls-7"><path class="cls-3" d="M81.36,30.79V32c0,.43-.27.78-.59.76l-18.6-1.18c-.18,0-.18-.37,0-.38L80.77,30C81.09,30,81.36,30.36,81.36,30.79Z"/></g><path class="cls-20" d="M80.36,29.79V31c0,.43-.27.78-.59.76l-18.6-1.18c-.18,0-.18-.37,0-.38L79.77,29C80.09,29,80.36,29.36,80.36,29.79Z"/><g class="cls-7"><path class="cls-3" d="M81.36,37.15v1.22a.91.91,0,0,1-1,.76L47.44,38c-.32,0-.32-.38,0-.39L80.32,36.4C80.89,36.38,81.36,36.72,81.36,37.15Z"/></g><path class="cls-20" d="M80.36,36.15v1.22a.91.91,0,0,1-1,.76L46.44,37c-.32,0-.32-.38,0-.39L79.32,35.4C79.89,35.38,80.36,35.72,80.36,36.15Z"/><g class="cls-7"><path class="cls-3" d="M81.36,43.15v1.22c0,.43-.61.78-1.33.76L38,44c-.42,0-.42-.38,0-.39L80,42.4C80.75,42.38,81.36,42.72,81.36,43.15Z"/></g><path class="cls-20" d="M80.36,42.15v1.22c0,.43-.61.78-1.33.76L37,43c-.42,0-.42-.38,0-.39L79,41.4C79.75,41.38,80.36,41.72,80.36,42.15Z"/><g class="cls-7"><path class="cls-3" d="M121,30.79V32c0,.43.27.78.59.76l18.6-1.18c.18,0,.18-.37,0-.38L121.58,30C121.26,30,121,30.36,121,30.79Z"/></g><path class="cls-20" d="M120,29.79V31c0,.43.27.78.59.76l18.6-1.18c.18,0,.18-.37,0-.38L120.58,29C120.26,29,120,29.36,120,29.79Z"/><g class="cls-7"><path class="cls-3" d="M121,37.15v1.22a.91.91,0,0,0,1,.76L154.91,38c.32,0,.32-.38,0-.39L122,36.4C121.46,36.38,121,36.72,121,37.15Z"/></g><path class="cls-20" d="M120,36.15v1.22a.91.91,0,0,0,1,.76L153.91,37c.32,0,.32-.38,0-.39L121,35.4C120.46,35.38,120,35.72,120,36.15Z"/><g class="cls-7"><path class="cls-3" d="M121,43.15v1.22c0,.43.61.78,1.33.76l42-1.17c.42,0,.42-.38,0-.39l-42-1.17C121.6,42.38,121,42.72,121,43.15Z"/></g><path class="cls-20" d="M120,42.15v1.22c0,.43.61.78,1.33.76l42-1.17c.42,0,.42-.38,0-.39l-42-1.17C120.6,41.38,120,41.72,120,42.15Z"/></g></g></svg>