<svg id="Layer_1" data-name="Layer 1" xmlns="http://www.w3.org/2000/svg" viewBox="0 0 540 540"><defs><style>.cls-1,.cls-2{fill:none;}.cls-1{stroke:#c69c6d;stroke-miterlimit:10;stroke-width:2px;}</style></defs><title>car-door</title><path class="cls-1" d="M45.58,139.53S296,137.71,494.43,150.1"/><path class="cls-1" d="M481.34,121.24C332.49,111,169.63,109.79,169.63,109.79c-62.73-.26-99.68.87-104.3.25a67.37,67.37,0,0,0-8.43.13A11.84,11.84,0,0,0,52,111.51c-13,6.94-7.15,37.94,13.63,137.69,12.51,60.05,17.11,93.69,46.81,122.43a126.29,126.29,0,0,0,11.36,9.76q8.82,4.39,18,8.48c140.4,62.36,280.57,36.34,328,26.95,7.4-1.47,17.36-12.38,17.49-16.75,1.13-40.09,2.58-75.9,4.22-131.36,1.32-44.39,2-88.8,3.29-133.19.05-1.59.2-6.37-2.88-9.92C488.68,121.82,483.42,121.39,481.34,121.24Z"/><path class="cls-1" d="M114.22,331.55,474.72,340s5,55.51-20.67,63.08c0,0-132.56,30.07-246.08-6S114.22,331.55,114.22,331.55Z"/><path class="cls-1" d="M305.46,142.24s5.15,60.82,7.54,63.13,41.23,18.07,180,6.62"/><line class="cls-1" x1="66.78" y1="254.55" x2="491.55" y2="268.71"/><path class="cls-1" d="M365.91,144.05s-5.85,55.67,1.16,57.88,114.9,6.32,123.19,2.23"/><path class="cls-1" d="M456.25,183.79l-54.95-2.27,1.14-18.62a5.1,5.1,0,0,0-4.78-5.4l-14.76-.9a5.09,5.09,0,0,0-5.4,4.78l-1.18,19.22a5,5,0,0,0,.27,1.93,4.14,4.14,0,0,0-.68,2.06l-.36,8.8a4.11,4.11,0,0,0,3.94,4.28l76.06,3.14a4.11,4.11,0,0,0,4.28-3.94l.36-8.81A4.1,4.1,0,0,0,456.25,183.79Z"/><rect class="cls-2" width="540" height="540"/></svg>