<svg id="Layer_1" data-name="Layer 1" xmlns="http://www.w3.org/2000/svg" viewBox="0 0 540 540"><defs><style>.cls-1,.cls-2{fill:none;}.cls-2,.cls-3{stroke:#ef233c;stroke-linecap:round;stroke-linejoin:round;stroke-width:2px;}.cls-3{fill:#d90429;}</style></defs><title>car-pet</title><rect class="cls-1" width="540" height="540"/><path class="cls-2" d="M416.1,496.06H123.9a16,16,0,0,1-16-16V421.82a16,16,0,0,1,16-15.95h8.82a19,19,0,0,0,19-19.05v-48.5a18.56,18.56,0,0,0-18.57-18.57H123.9a16,16,0,0,1-16-16V223.08a16,16,0,0,1,16-16h.15a27.72,27.72,0,0,0,27.71-27.72V148.53A27.52,27.52,0,0,0,124.24,121h-.34a16,16,0,0,1-16-16V59.9a16,16,0,0,1,16-16H416.1a16,16,0,0,1,16,16v45.15a16,16,0,0,1-16,16H415a26.78,26.78,0,0,0-26.78,26.78v31.48a27.86,27.86,0,0,0,27.86,27.86h0a16,16,0,0,1,16,16v80.71a16,16,0,0,1-16,16h-6.8a21.06,21.06,0,0,0-21.06,21.06v45.57a19.49,19.49,0,0,0,19.49,19.49h8.37a16,16,0,0,1,16,15.95V480.1A16,16,0,0,1,416.1,496.06Z"/><rect class="cls-3" x="124.24" y="93.85" width="5.58" height="16.15"/><rect class="cls-3" x="124.24" y="439.84" width="5.58" height="16.15"/><rect class="cls-3" x="124.24" y="268.24" width="5.58" height="16.15"/><rect class="cls-3" x="411.21" y="95.25" width="5.58" height="16.15"/><rect class="cls-3" x="411.21" y="441.23" width="5.58" height="16.15"/><rect class="cls-3" x="411.21" y="269.63" width="5.58" height="16.15"/><rect class="cls-3" x="180.01" y="173.19" width="181.29" height="240" rx="12"/></svg>