<svg id="Layer_1" data-name="Layer 1" xmlns="http://www.w3.org/2000/svg" viewBox="0 0 540 540"><defs><style>.cls-1,.cls-3{fill:none;}.cls-1,.cls-2{stroke:#ef233c;stroke-miterlimit:10;stroke-width:2px;}.cls-2{fill:#d90429;}</style></defs><title>car-pet</title><path class="cls-1" d="M392.93,164.25c-1-5.68-2.6-14.95-4-26.45-5.64-46-9.11-60.05-12.37-81.55a28.13,28.13,0,0,0-28-23.61H190.94a28.14,28.14,0,0,0-28.05,23.65Q149.92,138,137,219.79a52.82,52.82,0,0,0-1.65,7.87c-.21,1.55-.34,3-.4,4.41V482.68a24.68,24.68,0,0,0,24.68,24.68H380.42a24.68,24.68,0,0,0,24.68-24.68V232.07c-.17-1.72-.35-3.44-.55-5.17A444.15,444.15,0,0,0,392.93,164.25Z"/><rect class="cls-2" x="199.01" y="150.14" width="141.97" height="73.28" rx="9.72"/><rect class="cls-3" width="540" height="540"/></svg>