<svg id="Layer_1" data-name="Layer 1" xmlns="http://www.w3.org/2000/svg" viewBox="0 0 540 540"><defs><style>.cls-1,.cls-2,.cls-3{fill:none;}.cls-1,.cls-2{stroke:#ef233c;stroke-miterlimit:10;}.cls-1{stroke-width:2px;}.cls-2{stroke-width:5px;}</style></defs><title>car-knob</title><path class="cls-1" d="M437.79,194.19A167.8,167.8,0,1,1,270,26.4,167.79,167.79,0,0,1,437.79,194.19Z"/><path class="cls-1" d="M422.49,264.25C357,406.65,39.9,362,139.29,89"/><path class="cls-2" d="M297,68.25s82.69,46.26,88.51,102.12"/><path class="cls-2" d="M224,214.9S362.26,152.21,353,111.64"/><path class="cls-1" d="M198.26,345.9s47.53,86.57,34,167.7"/><path class="cls-1" d="M359.61,335.33s-47.53,86.57-34,167.7"/><path class="cls-2" d="M172.22,177.72S254.91,224,260.73,279.83"/><path class="cls-2" d="M249.32,123.23s82.68,46.25,88.5,102.11"/><rect class="cls-3" width="540" height="540"/></svg>