<svg id="Layer_1" data-name="Layer 1" xmlns="http://www.w3.org/2000/svg" viewBox="0 0 540 540"><defs><style>.cls-1,.cls-3{fill:none;}.cls-1,.cls-2{stroke:#c69c6d;stroke-width:2px;}.cls-1{stroke-miterlimit:10;}.cls-2{fill:#c69c6d;stroke-linecap:round;stroke-linejoin:round;}</style></defs><title>car-dash</title><path class="cls-1" d="M491.16,356H48.84a11,11,0,0,1-10.71-13.72C52.22,286.22,69.7,216.63,75.8,192.34A11,11,0,0,1,86.51,184H448.32a11,11,0,0,1,10.62,8l1.6,5.59,41.23,144.34A11,11,0,0,1,491.16,356Z"/><circle class="cls-1" cx="205.44" cy="270" r="58.78"/><path class="cls-1" d="M136.36,336.89a42.27,42.27,0,1,0-75.35,0Z"/><path class="cls-1" d="M478.1,336.89a42.26,42.26,0,1,0-75.36,0Z"/><circle class="cls-1" cx="335.09" cy="270" r="58.78"/><polygon class="cls-2" points="336.79 279.53 333.38 279.53 336.79 218.31 336.79 279.53"/><polygon class="cls-2" points="194.29 275.95 192.33 273.15 244.47 240.89 194.29 275.95"/><polygon class="cls-2" points="95.96 317.19 95.95 314.91 133.51 316.92 95.96 317.19"/><polygon class="cls-2" points="448.36 318.8 447.08 320.68 417.31 297.69 448.36 318.8"/><rect class="cls-3" width="540" height="540"/></svg>