<svg id="Layer_1" data-name="Layer 1" xmlns="http://www.w3.org/2000/svg" viewBox="0 0 540 540"><defs><style>.cls-1,.cls-3{fill:none;}.cls-1,.cls-2{stroke:#c69c6d;stroke-linecap:round;stroke-linejoin:round;stroke-width:3px;}.cls-2{fill:#c69c6d;}</style></defs><title>car-seat</title><polygon class="cls-1" points="323.86 41.56 215.84 41.56 201.42 101.76 215.84 101.76 323.86 101.76 338.28 101.76 323.86 41.56"/><path class="cls-1" d="M387.47,239.36c-2.21-20.62-8.38-28.15-6.82-47.35,1.31-16.24,6.91-29.39,3.41-40.8a17.81,17.81,0,0,0-3.41-6.45H159.05a17.81,17.81,0,0,0-3.41,6.45c-3.5,11.41,2.1,24.56,3.41,40.8,1.56,19.2-4.6,26.73-6.81,47.35-3.33,31,3.31,55.64,6.81,74.18,5.52,29.13,9.15,74.19,0,143h221.6c-9.15-68.78-5.52-113.84,0-143C384.15,295,390.79,270.39,387.47,239.36Z"/><rect class="cls-2" x="231.52" y="101.76" width="6.45" height="43"/><rect class="cls-2" x="302.47" y="101.76" width="6.45" height="43"/><line class="cls-2" x1="231.52" y1="144.76" x2="231.52" y2="456.51"/><line class="cls-2" x1="308.92" y1="144.76" x2="308.92" y2="456.51"/><line class="cls-2" x1="231.52" y1="291.3" x2="308.92" y2="291.3"/><rect class="cls-1" x="159.05" y="456.51" width="221.89" height="41.93"/><path class="cls-1" d="M109,498.44h50.08V422.11a53.28,53.28,0,0,0-15.68-5.37c-16-2.79-29,2.71-34.4,5.37a80.06,80.06,0,0,0,0,76.33Z"/><path class="cls-1" d="M431,498.44H381V422.11a53.28,53.28,0,0,1,15.68-5.37c16-2.79,29,2.71,34.4,5.37a80.06,80.06,0,0,1,0,76.33Z"/><rect class="cls-3" width="540" height="540"/></svg>