<svg id="Layer_1" data-name="Layer 1" xmlns="http://www.w3.org/2000/svg" viewBox="0 0 540 540"><defs><style>.cls-1,.cls-2,.cls-3{fill:none;}.cls-1,.cls-2{stroke:#c69c6d;stroke-linecap:round;stroke-linejoin:round;}.cls-1{stroke-width:2px;}</style></defs><title>car-top</title><path class="cls-1" d="M216,199.58c-66.67-13.33-143.45,23.53-143.45,23.53s73.27-3.45,119.38,14.81c0,0,24.92,42.2,24.92,81.31,0,0,90.17,33.4,121.58,21.55,0,0,64.24-38.09,77.57-74.53,0,0-104-40.89-98.67-49.78,0,0-8.89,3.56-30.22-6.22,0,0-14.22,5.33-27.85-3Z"/><path class="cls-1" d="M326,237.49s-25.17,7.14-57,41.87c0,0,33.48,32.19,47.33,28.87,0,0,50.63-31.27,47.46-47.45Z"/><path class="cls-1" d="M416,266.25S470.67,265,493.33,273"/><path class="cls-1" d="M216.85,319.23S46.67,300.91,46.67,291.58"/><path class="cls-2" d="M252.33,212.91c-2.55,0-47,20.45-47,20.45"/><path class="cls-2" d="M280.57,220.47c-2.56,0-47,20.44-47,20.44"/><path class="cls-2" d="M309.93,228.87c-2.55.2-45.24,24.09-45.24,24.09"/><rect class="cls-3" width="540" height="540"/></svg>